<?xml version="1.0" encoding="UTF-8"?>
<svg version="1.1" viewBox="0 0 964 1016" width="1280" height="1280" xmlns="http://www.w3.org/2000/svg">
<path transform="translate(502,120)" d="m0 0h48l25 3 25 6 16 6 17 8 12 8 10 8 10 9 7 7 11 15 8 16 5 13 4 23v23l-5 26-5 15-9 19-14 21-11 13-11 12-16 16-8 7-17 14-11 8-21 14-6 3 6 9 12 16 16 24 14 22 15 27 11 22 13 31 9 25 8 24 2 1 29 4 36 7 48 12 39 12 20 7 2 2-2 10-13 40-11 26h-3l-15-10-21-12-16-8-25-11-22-8-24-6-16-3 1 7-2 21-3 17-6 21-9 21-10 18-10 14-12 14-9 10-10 9-13 11-18 13-19 11-20 9-23 7-24 4-10 1h-22l-21-2-18-3-22-6-18-8-12-7-14-11-12-12-10-14-5-9-5-11-5-15-3-20v-23l3-18 5-15 7-14 9-12 9-10 12-11 27-18 16-9 27-12 33-11 19-5h2l-11-18-10-15-19-28-29-43-9-13-5-7-11 1-35 5-21 2h-34l-21-2-19-3-20-5-19-7-19-9-18-12-15-13-12-14-12-19-9-19-5-15-4-18-2-12-1-13v-25l2-22 4-27 5-25 2-5 21 1 25 4 19 5 6 3-8 24-6 25-3 23v27l4 18 7 17 8 12 3 3v2l4 2v2l4 2 9 7 14 8 16 7 15 4 24 3h11l31-4 14-3h5l-18-35-11-25-8-22-7-28-3-21v-31l4-25 6-18 9-19 8-12 12-14 4-5 11-9 10-8 18-12 18-10 15-7 19-7 23-6 24-4zm25 72-20 4-16 6-12 8-9 8-7 11-3 9-1 8v10l2 13 6 17 12 25 8 15 13 19 10 14 13 16 5-2 16-8 18-12 14-11 13-12 13-13 11-14 9-16 4-8 3-13 1-6-1-17-3-10-6-11-11-11-11-7-12-6-19-5-6-1zm-19 498-26 3-19 5-16 6-22 11-14 10-10 9-8 10-5 12-2 7v13l3 13 7 13 11 11 10 6 12 4 7 1h17l13-3 12-6 12-11 8-8 11-17 6-14 3-14v-30l-4-25-2-5z" fill="#0BB682"/>
</svg>
